<mxfile host="65bd71144e">
    <diagram name="Page-1" id="gsfR2lPIybh8ACA6FocS">
        <mxGraphModel dx="434" dy="319" grid="1" gridSize="1.9685" guides="1" tooltips="1" connect="1" arrows="1" fold="1" page="1" pageScale="1" pageWidth="425" pageHeight="338" background="none" math="0" shadow="0">
            <root>
                <mxCell id="0"/>
                <mxCell id="1" value="layer00" style="" parent="0"/>
                <mxCell id="3" value="" style="ellipse;whiteSpace=wrap;html=1;aspect=fixed;fillColor=#FF0000;" parent="1" vertex="1">
                    <mxGeometry x="45.28" y="29.53" width="13" height="13" as="geometry"/>
                </mxCell>
                <mxCell id="4" value="" style="ellipse;whiteSpace=wrap;html=1;aspect=fixed;fillColor=#0000FF;" parent="1" vertex="1">
                    <mxGeometry x="66.9285" y="162.9985" width="13" height="13" as="geometry"/>
                </mxCell>
                <mxCell id="7" value="" style="ellipse;whiteSpace=wrap;html=1;aspect=fixed;fillColor=#FF0000;" parent="1" vertex="1">
                    <mxGeometry x="88.58699999999999" y="74.807" width="13" height="13" as="geometry"/>
                </mxCell>
                <mxCell id="8" value="" style="ellipse;whiteSpace=wrap;html=1;aspect=fixed;fillColor=#009900;" parent="1" vertex="1">
                    <mxGeometry x="289.3655" y="55.115500000000004" width="13" height="13" as="geometry"/>
                </mxCell>
                <mxCell id="9" value="" style="ellipse;whiteSpace=wrap;html=1;aspect=fixed;fillColor=#009900;" parent="1" vertex="1">
                    <mxGeometry x="194.884" y="33.464" width="13" height="13" as="geometry"/>
                </mxCell>
                <mxCell id="10" value="" style="ellipse;whiteSpace=wrap;html=1;aspect=fixed;fillColor=#0000FF;" parent="1" vertex="1">
                    <mxGeometry x="173.23250000000002" y="118.1125" width="13" height="13" as="geometry"/>
                </mxCell>
                <mxCell id="11" value="" style="ellipse;whiteSpace=wrap;html=1;aspect=fixed;fillColor=#FFFF00;" parent="1" vertex="1">
                    <mxGeometry x="340.55100000000004" y="116.14099999999999" width="13" height="13" as="geometry"/>
                </mxCell>
                <mxCell id="12" value="" style="ellipse;whiteSpace=wrap;html=1;aspect=fixed;fillColor=#0000FF;" parent="1" vertex="1">
                    <mxGeometry x="236.21949999999998" y="208.65949999999998" width="13" height="13" as="geometry"/>
                </mxCell>
                <mxCell id="13" value="" style="ellipse;whiteSpace=wrap;html=1;aspect=fixed;fillColor=#660000;" parent="1" vertex="1">
                    <mxGeometry x="110.238" y="224.408" width="13" height="13" as="geometry"/>
                </mxCell>
                <mxCell id="14" value="" style="ellipse;whiteSpace=wrap;html=1;aspect=fixed;fillColor=#660000;" parent="1" vertex="1">
                    <mxGeometry x="309.0565" y="237.4065" width="13" height="13" as="geometry"/>
                </mxCell>
                <mxCell id="15" value="" style="ellipse;whiteSpace=wrap;html=1;aspect=fixed;fillColor=#009900;" parent="1" vertex="1">
                    <mxGeometry x="259.845" y="120.075" width="13" height="13" as="geometry"/>
                </mxCell>
                <mxCell id="16" value="" style="ellipse;whiteSpace=wrap;html=1;aspect=fixed;fillColor=#660000;" parent="1" vertex="1">
                    <mxGeometry x="169.2935" y="289.3735" width="13" height="13" as="geometry"/>
                </mxCell>
                <mxCell id="17" value="" style="ellipse;whiteSpace=wrap;html=1;aspect=fixed;fillColor=#FFFF00;" parent="1" vertex="1">
                    <mxGeometry x="374.012" y="27.561999999999998" width="13" height="13" as="geometry"/>
                </mxCell>
                <mxCell id="eSA84T2NVFT6d7LiYqhv-20" value="layer01" style="" parent="0"/>
                <mxCell id="21" style="edgeStyle=none;html=1;exitX=1;exitY=1;exitDx=0;exitDy=0;entryX=0;entryY=0;entryDx=0;entryDy=0;endArrow=none;endFill=0;" parent="eSA84T2NVFT6d7LiYqhv-20" edge="1">
                    <mxGeometry relative="1" as="geometry">
                        <mxPoint x="56.376194077707964" y="40.62619407770802" as="sourcePoint"/>
                        <mxPoint x="90.49080592228711" y="76.7108059222872" as="targetPoint"/>
                    </mxGeometry>
                </mxCell>
                <mxCell id="22" style="edgeStyle=none;html=1;exitX=1;exitY=0.5;exitDx=0;exitDy=0;entryX=0;entryY=1;entryDx=0;entryDy=0;endArrow=none;endFill=0;" parent="eSA84T2NVFT6d7LiYqhv-20" source="7" edge="1">
                    <mxGeometry relative="1" as="geometry">
                        <mxPoint x="101.58700000000385" y="81.30700000000002" as="sourcePoint"/>
                        <mxPoint x="196.7878059222918" y="44.56019407770816" as="targetPoint"/>
                    </mxGeometry>
                </mxCell>
                <mxCell id="25" style="edgeStyle=none;html=1;exitX=0.5;exitY=1;exitDx=0;exitDy=0;entryX=1;entryY=0;entryDx=0;entryDy=0;endArrow=none;endFill=0;" parent="eSA84T2NVFT6d7LiYqhv-20" source="8" target="15" edge="1">
                    <mxGeometry relative="1" as="geometry"/>
                </mxCell>
                <mxCell id="35" style="edgeStyle=none;html=1;exitX=0.5;exitY=0;exitDx=0;exitDy=0;entryX=0.5;entryY=1;entryDx=0;entryDy=0;endArrow=none;endFill=0;" parent="eSA84T2NVFT6d7LiYqhv-20" source="4" target="7" edge="1">
                    <mxGeometry relative="1" as="geometry"/>
                </mxCell>
                <mxCell id="42" style="edgeStyle=none;html=1;exitX=0.5;exitY=1;exitDx=0;exitDy=0;entryX=0;entryY=0;entryDx=0;entryDy=0;endArrow=none;endFill=0;" parent="eSA84T2NVFT6d7LiYqhv-20" source="13" target="16" edge="1">
                    <mxGeometry relative="1" as="geometry"/>
                </mxCell>
                <mxCell id="43" style="edgeStyle=none;html=1;exitX=1;exitY=0.5;exitDx=0;exitDy=0;entryX=0;entryY=1;entryDx=0;entryDy=0;endArrow=none;endFill=0;" parent="eSA84T2NVFT6d7LiYqhv-20" source="16" target="14" edge="1">
                    <mxGeometry relative="1" as="geometry"/>
                </mxCell>
                <mxCell id="47" style="edgeStyle=none;html=1;exitX=0.5;exitY=1;exitDx=0;exitDy=0;entryX=0.454;entryY=0.146;entryDx=0;entryDy=0;endArrow=none;endFill=0;entryPerimeter=0;" parent="eSA84T2NVFT6d7LiYqhv-20" edge="1">
                    <mxGeometry relative="1" as="geometry">
                        <mxPoint x="201.3839999999999" y="46.464" as="sourcePoint"/>
                        <mxPoint x="179.13450000000012" y="120.01050000000004" as="targetPoint"/>
                    </mxGeometry>
                </mxCell>
                <mxCell id="48" style="edgeStyle=none;html=1;exitX=1;exitY=0.5;exitDx=0;exitDy=0;entryX=0;entryY=0.5;entryDx=0;entryDy=0;endArrow=none;endFill=0;" parent="eSA84T2NVFT6d7LiYqhv-20" edge="1">
                    <mxGeometry relative="1" as="geometry">
                        <mxPoint x="207.88400000000036" y="39.964" as="sourcePoint"/>
                        <mxPoint x="289.36550000000625" y="61.6155" as="targetPoint"/>
                    </mxGeometry>
                </mxCell>
                <mxCell id="49" style="edgeStyle=none;html=1;exitX=1;exitY=1;exitDx=0;exitDy=0;entryX=0;entryY=0;entryDx=0;entryDy=0;endArrow=none;endFill=0;" parent="eSA84T2NVFT6d7LiYqhv-20" edge="1">
                    <mxGeometry relative="1" as="geometry">
                        <mxPoint x="300.461694077708" y="66.21169407770805" as="sourcePoint"/>
                        <mxPoint x="342.4548059222825" y="118.04480592228225" as="targetPoint"/>
                    </mxGeometry>
                </mxCell>
                <mxCell id="50" style="edgeStyle=none;html=1;exitX=1;exitY=0.5;exitDx=0;exitDy=0;entryX=0;entryY=0.5;entryDx=0;entryDy=0;endArrow=none;endFill=0;" parent="eSA84T2NVFT6d7LiYqhv-20" edge="1">
                    <mxGeometry relative="1" as="geometry">
                        <mxPoint x="186.23250000000394" y="124.61250000000001" as="sourcePoint"/>
                        <mxPoint x="259.8449999999997" y="126.57499999999999" as="targetPoint"/>
                    </mxGeometry>
                </mxCell>
                <mxCell id="51" style="edgeStyle=none;html=1;exitX=1;exitY=0.5;exitDx=0;exitDy=0;endArrow=none;endFill=0;entryX=0;entryY=0.5;entryDx=0;entryDy=0;" parent="eSA84T2NVFT6d7LiYqhv-20" edge="1">
                    <mxGeometry relative="1" as="geometry">
                        <mxPoint x="272.8450000000005" y="126.57499999999999" as="sourcePoint"/>
                        <mxPoint x="340.5509999999997" y="122.64099999999996" as="targetPoint"/>
                    </mxGeometry>
                </mxCell>
                <mxCell id="52" style="edgeStyle=none;html=1;exitX=1;exitY=0;exitDx=0;exitDy=0;entryX=0.5;entryY=1;entryDx=0;entryDy=0;endArrow=none;endFill=0;" parent="eSA84T2NVFT6d7LiYqhv-20" edge="1">
                    <mxGeometry relative="1" as="geometry">
                        <mxPoint x="351.6471940777177" y="118.04480592228225" as="sourcePoint"/>
                        <mxPoint x="380.51199999999994" y="40.56200000000001" as="targetPoint"/>
                    </mxGeometry>
                </mxCell>
                <mxCell id="53" style="edgeStyle=none;html=1;exitX=0;exitY=0.5;exitDx=0;exitDy=0;entryX=1;entryY=0.5;entryDx=0;entryDy=0;endArrow=none;endFill=0;" parent="eSA84T2NVFT6d7LiYqhv-20" edge="1">
                    <mxGeometry relative="1" as="geometry">
                        <mxPoint x="374.0119999999996" y="34.06200000000001" as="sourcePoint"/>
                        <mxPoint x="302.36549999999363" y="61.6155" as="targetPoint"/>
                    </mxGeometry>
                </mxCell>
                <mxCell id="54" style="edgeStyle=none;html=1;exitX=0.5;exitY=1;exitDx=0;exitDy=0;entryX=0.5;entryY=0;entryDx=0;entryDy=0;endArrow=none;endFill=0;" parent="eSA84T2NVFT6d7LiYqhv-20" edge="1">
                    <mxGeometry relative="1" as="geometry">
                        <mxPoint x="266.345" y="133.075" as="sourcePoint"/>
                        <mxPoint x="242.71949999999993" y="208.65949999999992" as="targetPoint"/>
                    </mxGeometry>
                </mxCell>
                <mxCell id="55" style="edgeStyle=none;html=1;exitX=1;exitY=0;exitDx=0;exitDy=0;entryX=0.5;entryY=1;entryDx=0;entryDy=0;endArrow=none;endFill=0;" parent="eSA84T2NVFT6d7LiYqhv-20" edge="1">
                    <mxGeometry relative="1" as="geometry">
                        <mxPoint x="247.31569407770792" y="210.563305922292" as="sourcePoint"/>
                        <mxPoint x="347.05100000000004" y="129.14099999999996" as="targetPoint"/>
                    </mxGeometry>
                </mxCell>
                <mxCell id="56" style="edgeStyle=none;html=1;exitX=0;exitY=1;exitDx=0;exitDy=0;entryX=1;entryY=0.5;entryDx=0;entryDy=0;endArrow=none;endFill=0;" parent="eSA84T2NVFT6d7LiYqhv-20" edge="1">
                    <mxGeometry relative="1" as="geometry">
                        <mxPoint x="175.13630592228242" y="129.20869407771772" as="sourcePoint"/>
                        <mxPoint x="79.92849999999703" y="169.49850000000004" as="targetPoint"/>
                    </mxGeometry>
                </mxCell>
                <mxCell id="57" style="edgeStyle=none;html=1;exitX=1;exitY=1;exitDx=0;exitDy=0;entryX=0;entryY=0;entryDx=0;entryDy=0;endArrow=none;endFill=0;" parent="eSA84T2NVFT6d7LiYqhv-20" edge="1">
                    <mxGeometry relative="1" as="geometry">
                        <mxPoint x="78.02469407770803" y="174.09469407770808" as="sourcePoint"/>
                        <mxPoint x="112.14180592228718" y="226.3118059222872" as="targetPoint"/>
                    </mxGeometry>
                </mxCell>
                <mxCell id="58" style="edgeStyle=none;html=1;exitX=1;exitY=0.5;exitDx=0;exitDy=0;entryX=0;entryY=0.5;entryDx=0;entryDy=0;endArrow=none;endFill=0;" parent="eSA84T2NVFT6d7LiYqhv-20" edge="1">
                    <mxGeometry relative="1" as="geometry">
                        <mxPoint x="123.23800000000392" y="230.90800000000002" as="sourcePoint"/>
                        <mxPoint x="236.21949999999947" y="215.15949999999992" as="targetPoint"/>
                    </mxGeometry>
                </mxCell>
                <mxCell id="59" style="edgeStyle=none;html=1;exitX=1;exitY=0;exitDx=0;exitDy=0;entryX=0;entryY=1;entryDx=0;entryDy=0;endArrow=none;endFill=0;" parent="eSA84T2NVFT6d7LiYqhv-20" edge="1">
                    <mxGeometry relative="1" as="geometry">
                        <mxPoint x="121.33419407771282" y="226.3118059222872" as="sourcePoint"/>
                        <mxPoint x="261.7488059222824" y="131.1711940777176" as="targetPoint"/>
                    </mxGeometry>
                </mxCell>
                <mxCell id="61" style="edgeStyle=none;html=1;exitX=1;exitY=1;exitDx=0;exitDy=0;entryX=0;entryY=0.5;entryDx=0;entryDy=0;endArrow=none;endFill=0;" parent="eSA84T2NVFT6d7LiYqhv-20" edge="1">
                    <mxGeometry relative="1" as="geometry">
                        <mxPoint x="121.33419407771282" y="235.5041940777129" as="sourcePoint"/>
                        <mxPoint x="309.0564999999997" y="243.9065" as="targetPoint"/>
                    </mxGeometry>
                </mxCell>
                <mxCell id="62" style="edgeStyle=none;html=1;exitX=1;exitY=1;exitDx=0;exitDy=0;entryX=0;entryY=0;entryDx=0;entryDy=0;endArrow=none;endFill=0;" parent="eSA84T2NVFT6d7LiYqhv-20" edge="1">
                    <mxGeometry relative="1" as="geometry">
                        <mxPoint x="247.31569407770792" y="219.75569407770797" as="sourcePoint"/>
                        <mxPoint x="310.9603059222824" y="239.31030592228234" as="targetPoint"/>
                    </mxGeometry>
                </mxCell>
                <mxCell id="95" style="edgeStyle=none;html=1;exitX=0.5;exitY=1;exitDx=0;exitDy=0;entryX=0.5;entryY=0;entryDx=0;entryDy=0;endArrow=none;endFill=0;" parent="eSA84T2NVFT6d7LiYqhv-20" edge="1">
                    <mxGeometry relative="1" as="geometry">
                        <mxPoint x="346.98800000000006" y="129.07799999999995" as="sourcePoint"/>
                        <mxPoint x="315.55350000000004" y="237.4035" as="targetPoint"/>
                    </mxGeometry>
                </mxCell>
                <mxCell id="eSA84T2NVFT6d7LiYqhv-18" value="layer02" style="" parent="0"/>
                <mxCell id="87" style="edgeStyle=none;html=1;exitX=1;exitY=0.5;exitDx=0;exitDy=0;entryX=0;entryY=1;entryDx=0;entryDy=0;endArrow=none;endFill=0;strokeColor=#0000FF;strokeWidth=2;" parent="eSA84T2NVFT6d7LiYqhv-18" edge="1">
                    <mxGeometry relative="1" as="geometry">
                        <mxPoint x="101.5240000000033" y="81.24399999999991" as="sourcePoint"/>
                        <mxPoint x="196.7248059222918" y="44.49719407770816" as="targetPoint"/>
                    </mxGeometry>
                </mxCell>
                <mxCell id="88" style="edgeStyle=none;html=1;exitX=0.5;exitY=0;exitDx=0;exitDy=0;entryX=0.5;entryY=1;entryDx=0;entryDy=0;endArrow=none;endFill=0;strokeColor=#0000FF;strokeWidth=2;" parent="eSA84T2NVFT6d7LiYqhv-18" edge="1">
                    <mxGeometry relative="1" as="geometry">
                        <mxPoint x="73.36549999999998" y="162.93550000000005" as="sourcePoint"/>
                        <mxPoint x="95.024" y="87.74399999999991" as="targetPoint"/>
                    </mxGeometry>
                </mxCell>
                <mxCell id="89" style="edgeStyle=none;html=1;exitX=1;exitY=0.5;exitDx=0;exitDy=0;entryX=0;entryY=0.5;entryDx=0;entryDy=0;endArrow=none;endFill=0;strokeColor=#0000FF;strokeWidth=2;" parent="eSA84T2NVFT6d7LiYqhv-18" edge="1">
                    <mxGeometry relative="1" as="geometry">
                        <mxPoint x="207.82100000000037" y="39.900999999999996" as="sourcePoint"/>
                        <mxPoint x="289.30250000000626" y="61.552499999999995" as="targetPoint"/>
                    </mxGeometry>
                </mxCell>
                <mxCell id="90" style="edgeStyle=none;html=1;exitX=1;exitY=1;exitDx=0;exitDy=0;entryX=0;entryY=0;entryDx=0;entryDy=0;endArrow=none;endFill=0;strokeColor=#0000FF;strokeWidth=2;" parent="eSA84T2NVFT6d7LiYqhv-18" edge="1">
                    <mxGeometry relative="1" as="geometry">
                        <mxPoint x="300.398694077708" y="66.14869407770804" as="sourcePoint"/>
                        <mxPoint x="342.3918059222825" y="117.98180592228225" as="targetPoint"/>
                    </mxGeometry>
                </mxCell>
                <mxCell id="101" style="edgeStyle=none;html=1;exitX=0.5;exitY=1;exitDx=0;exitDy=0;entryX=0.5;entryY=0;entryDx=0;entryDy=0;endArrow=none;endFill=0;strokeWidth=2;strokeColor=#0000FF;" edge="1" parent="eSA84T2NVFT6d7LiYqhv-18" source="11" target="14">
                    <mxGeometry relative="1" as="geometry">
                        <mxPoint x="350.92500000000007" y="133.015" as="sourcePoint"/>
                        <mxPoint x="319.4905" y="241.34050000000002" as="targetPoint"/>
                    </mxGeometry>
                </mxCell>
            </root>
        </mxGraphModel>
    </diagram>
</mxfile>